<svg viewBox="0 20 100 60" xmlns="http://www.w3.org/2000/svg" xmlns:svg="http://www.w3.org/2000/svg">
 <!-- Flamme -->
 <g id="flame" transform="matrix(1 0 0 1 0 0)">
   <path d="m0,50q20,-15 30,0" fill="red" id="svg_3"/>
   <path d="m0,50q20,15 30,0" fill="red" id="svg_4"/>
   <path d="m5,50q15,-10 20,0" fill="orange" id="svg_5"/>
   <path d="m5,50q15,10 20,0" fill="orange" id="svg_6"/>
   <path d="m10,50q10,-5 15,0" fill="yellow" id="svg_7"/>
   <path d="m10,50q10,5 15,0" fill="yellow" id="svg_8"/>
 </g>
 <!-- Flügel -->
 <!-- Rumpfform -->
 <mask id="rumpf">
  <rect fill="black" height="100" id="svg_1" width="100" x="0" y="0"/>
  <ellipse cx="50" cy="50" fill="white" id="svg_2" rx="50" ry="12"/>
 </mask>
 <!-- Rumpf und Fenster -->
  <g fill="#1e45bc" id="svg_9" transform="matrix(1 0 0 1 0 0)">
   <polygon fill="#b5ff00" id="svg_10" points="65,50 45,22.5 20,20 30,50"/>
   <polygon fill="#b5ff00" id="svg_11" points="65,50 45,77.5 20,80 30,50"/>
  </g>
  <rect fill="#96d102" height="100" id="svg_14" mask="url(#rumpf)" width="25" x="20"/>
  <rect fill="white" height="100" id="svg_12" mask="url(#rumpf)" transform="matrix(1 0 0 1 0 0)" width="40" x="45"/>
  <rect fill="#96d102" height="100" id="svg_15" mask="url(#rumpf)" width="15" x="85"/>
  <circle cx="70" cy="50" fill="#96d102" id="svg_16" r="6" stroke="black" stroke-width="0.5"/>
</svg>
